<mxfile host="app.diagrams.net" modified="2024-05-28T15:01:51.925Z" agent="Mozilla/5.0 (Windows NT 10.0; Win64; x64) AppleWebKit/537.36 (KHTML, like Gecko) Chrome/125.0.0.0 Safari/537.36" etag="92eqI36e-_9m3MFDJGdO" version="24.3.1" type="device">
  <diagram id="bc47vRQSer-DN1HRI0ml" name="Page-1">
    <mxGraphModel dx="882" dy="578" grid="1" gridSize="10" guides="1" tooltips="1" connect="1" arrows="1" fold="1" page="1" pageScale="1" pageWidth="850" pageHeight="1100" math="0" shadow="0">
      <root>
        <mxCell id="0" />
        <mxCell id="1" parent="0" />
        <mxCell id="EWr4yt69ypZN1Aizugo9-2" value="" style="swimlane;startSize=0;" vertex="1" parent="1">
          <mxGeometry x="80" y="120" width="520" height="320" as="geometry" />
        </mxCell>
        <mxCell id="EWr4yt69ypZN1Aizugo9-3" value="DB" style="rounded=1;whiteSpace=wrap;html=1;" vertex="1" parent="EWr4yt69ypZN1Aizugo9-2">
          <mxGeometry x="40" y="40" width="80" height="40" as="geometry" />
        </mxCell>
        <mxCell id="EWr4yt69ypZN1Aizugo9-16" style="edgeStyle=orthogonalEdgeStyle;rounded=0;orthogonalLoop=1;jettySize=auto;html=1;exitX=0.5;exitY=1;exitDx=0;exitDy=0;entryX=0.5;entryY=0;entryDx=0;entryDy=0;" edge="1" parent="EWr4yt69ypZN1Aizugo9-2" source="EWr4yt69ypZN1Aizugo9-4" target="EWr4yt69ypZN1Aizugo9-11">
          <mxGeometry relative="1" as="geometry" />
        </mxCell>
        <mxCell id="EWr4yt69ypZN1Aizugo9-4" value="Wallet" style="rounded=1;whiteSpace=wrap;html=1;" vertex="1" parent="EWr4yt69ypZN1Aizugo9-2">
          <mxGeometry x="280" y="160" width="80" height="40" as="geometry" />
        </mxCell>
        <mxCell id="EWr4yt69ypZN1Aizugo9-21" style="edgeStyle=orthogonalEdgeStyle;rounded=0;orthogonalLoop=1;jettySize=auto;html=1;exitX=0.5;exitY=1;exitDx=0;exitDy=0;entryX=0.5;entryY=0;entryDx=0;entryDy=0;" edge="1" parent="EWr4yt69ypZN1Aizugo9-2" source="EWr4yt69ypZN1Aizugo9-5" target="EWr4yt69ypZN1Aizugo9-19">
          <mxGeometry relative="1" as="geometry" />
        </mxCell>
        <mxCell id="EWr4yt69ypZN1Aizugo9-5" value="Payment executor" style="rounded=1;whiteSpace=wrap;html=1;" vertex="1" parent="EWr4yt69ypZN1Aizugo9-2">
          <mxGeometry x="360" y="40" width="80" height="40" as="geometry" />
        </mxCell>
        <mxCell id="EWr4yt69ypZN1Aizugo9-13" style="edgeStyle=orthogonalEdgeStyle;rounded=0;orthogonalLoop=1;jettySize=auto;html=1;exitX=0;exitY=0.5;exitDx=0;exitDy=0;" edge="1" parent="EWr4yt69ypZN1Aizugo9-2" source="EWr4yt69ypZN1Aizugo9-7" target="EWr4yt69ypZN1Aizugo9-3">
          <mxGeometry relative="1" as="geometry" />
        </mxCell>
        <mxCell id="EWr4yt69ypZN1Aizugo9-14" style="edgeStyle=orthogonalEdgeStyle;rounded=0;orthogonalLoop=1;jettySize=auto;html=1;exitX=0.25;exitY=1;exitDx=0;exitDy=0;entryX=0.5;entryY=0;entryDx=0;entryDy=0;" edge="1" parent="EWr4yt69ypZN1Aizugo9-2" source="EWr4yt69ypZN1Aizugo9-7" target="EWr4yt69ypZN1Aizugo9-9">
          <mxGeometry relative="1" as="geometry" />
        </mxCell>
        <mxCell id="EWr4yt69ypZN1Aizugo9-15" style="edgeStyle=orthogonalEdgeStyle;rounded=0;orthogonalLoop=1;jettySize=auto;html=1;exitX=0.75;exitY=1;exitDx=0;exitDy=0;entryX=0.5;entryY=0;entryDx=0;entryDy=0;" edge="1" parent="EWr4yt69ypZN1Aizugo9-2" source="EWr4yt69ypZN1Aizugo9-7" target="EWr4yt69ypZN1Aizugo9-4">
          <mxGeometry relative="1" as="geometry" />
        </mxCell>
        <mxCell id="EWr4yt69ypZN1Aizugo9-18" style="edgeStyle=orthogonalEdgeStyle;rounded=0;orthogonalLoop=1;jettySize=auto;html=1;exitX=1;exitY=0.5;exitDx=0;exitDy=0;entryX=0;entryY=0.5;entryDx=0;entryDy=0;" edge="1" parent="EWr4yt69ypZN1Aizugo9-2" source="EWr4yt69ypZN1Aizugo9-7" target="EWr4yt69ypZN1Aizugo9-5">
          <mxGeometry relative="1" as="geometry" />
        </mxCell>
        <mxCell id="EWr4yt69ypZN1Aizugo9-7" value="Payment service" style="rounded=1;whiteSpace=wrap;html=1;" vertex="1" parent="EWr4yt69ypZN1Aizugo9-2">
          <mxGeometry x="200" y="40" width="80" height="40" as="geometry" />
        </mxCell>
        <mxCell id="EWr4yt69ypZN1Aizugo9-17" style="edgeStyle=orthogonalEdgeStyle;rounded=0;orthogonalLoop=1;jettySize=auto;html=1;exitX=0.5;exitY=1;exitDx=0;exitDy=0;entryX=0.5;entryY=0;entryDx=0;entryDy=0;" edge="1" parent="EWr4yt69ypZN1Aizugo9-2" source="EWr4yt69ypZN1Aizugo9-9" target="EWr4yt69ypZN1Aizugo9-10">
          <mxGeometry relative="1" as="geometry" />
        </mxCell>
        <mxCell id="EWr4yt69ypZN1Aizugo9-9" value="Ledger" style="rounded=1;whiteSpace=wrap;html=1;" vertex="1" parent="EWr4yt69ypZN1Aizugo9-2">
          <mxGeometry x="120" y="160" width="80" height="40" as="geometry" />
        </mxCell>
        <mxCell id="EWr4yt69ypZN1Aizugo9-10" value="DB" style="rounded=1;whiteSpace=wrap;html=1;" vertex="1" parent="EWr4yt69ypZN1Aizugo9-2">
          <mxGeometry x="120" y="240" width="80" height="40" as="geometry" />
        </mxCell>
        <mxCell id="EWr4yt69ypZN1Aizugo9-11" value="DB" style="rounded=1;whiteSpace=wrap;html=1;" vertex="1" parent="EWr4yt69ypZN1Aizugo9-2">
          <mxGeometry x="280" y="240" width="80" height="40" as="geometry" />
        </mxCell>
        <mxCell id="EWr4yt69ypZN1Aizugo9-19" value="DB" style="rounded=1;whiteSpace=wrap;html=1;" vertex="1" parent="EWr4yt69ypZN1Aizugo9-2">
          <mxGeometry x="400" y="160" width="80" height="40" as="geometry" />
        </mxCell>
        <mxCell id="EWr4yt69ypZN1Aizugo9-30" value="Payment event" style="text;html=1;align=center;verticalAlign=middle;whiteSpace=wrap;rounded=0;" vertex="1" parent="EWr4yt69ypZN1Aizugo9-2">
          <mxGeometry x="160" width="80" height="30" as="geometry" />
        </mxCell>
        <mxCell id="EWr4yt69ypZN1Aizugo9-31" value="Payment order" style="text;html=1;align=center;verticalAlign=middle;whiteSpace=wrap;rounded=0;" vertex="1" parent="EWr4yt69ypZN1Aizugo9-2">
          <mxGeometry x="280" y="30" width="80" height="30" as="geometry" />
        </mxCell>
        <mxCell id="EWr4yt69ypZN1Aizugo9-26" style="edgeStyle=orthogonalEdgeStyle;rounded=0;orthogonalLoop=1;jettySize=auto;html=1;exitX=0.5;exitY=1;exitDx=0;exitDy=0;entryX=0.5;entryY=0;entryDx=0;entryDy=0;" edge="1" parent="1" source="EWr4yt69ypZN1Aizugo9-22" target="EWr4yt69ypZN1Aizugo9-23">
          <mxGeometry relative="1" as="geometry" />
        </mxCell>
        <mxCell id="EWr4yt69ypZN1Aizugo9-22" value="Payment service provider" style="rounded=1;whiteSpace=wrap;html=1;" vertex="1" parent="1">
          <mxGeometry x="680" y="160" width="80" height="40" as="geometry" />
        </mxCell>
        <mxCell id="EWr4yt69ypZN1Aizugo9-23" value="Card schemes" style="rounded=1;whiteSpace=wrap;html=1;" vertex="1" parent="1">
          <mxGeometry x="680" y="240" width="80" height="40" as="geometry" />
        </mxCell>
        <mxCell id="EWr4yt69ypZN1Aizugo9-28" style="edgeStyle=orthogonalEdgeStyle;rounded=0;orthogonalLoop=1;jettySize=auto;html=1;exitX=0.5;exitY=1;exitDx=0;exitDy=0;entryX=0.5;entryY=0;entryDx=0;entryDy=0;" edge="1" parent="1" source="EWr4yt69ypZN1Aizugo9-27" target="EWr4yt69ypZN1Aizugo9-7">
          <mxGeometry relative="1" as="geometry" />
        </mxCell>
        <mxCell id="EWr4yt69ypZN1Aizugo9-27" value="User" style="rounded=1;whiteSpace=wrap;html=1;" vertex="1" parent="1">
          <mxGeometry x="280" y="40" width="80" height="40" as="geometry" />
        </mxCell>
        <mxCell id="EWr4yt69ypZN1Aizugo9-29" style="edgeStyle=orthogonalEdgeStyle;rounded=0;orthogonalLoop=1;jettySize=auto;html=1;exitX=1;exitY=0.5;exitDx=0;exitDy=0;entryX=0;entryY=0.5;entryDx=0;entryDy=0;" edge="1" parent="1" source="EWr4yt69ypZN1Aizugo9-5" target="EWr4yt69ypZN1Aizugo9-22">
          <mxGeometry relative="1" as="geometry" />
        </mxCell>
      </root>
    </mxGraphModel>
  </diagram>
</mxfile>
